<svg id="Layer_1" data-name="Layer 1" xmlns="http://www.w3.org/2000/svg" viewBox="0 0 90 90"><defs><style>.cls-1{fill:#d3b356;}</style></defs><path class="cls-1" d="M45,67a5.57,5.57,0,1,1,5.57-5.57A5.58,5.58,0,0,1,45,67Zm0-9a3.42,3.42,0,1,0,3.41,3.41A3.41,3.41,0,0,0,45,58.06Z"/><path class="cls-1" d="M45,71.54A10.07,10.07,0,1,1,55.06,61.47,10.08,10.08,0,0,1,45,71.54Zm0-18a7.91,7.91,0,1,0,7.91,7.91A7.92,7.92,0,0,0,45,53.56Z"/><path class="cls-1" d="M30,52.16A1.83,1.83,0,1,1,28.2,54,1.83,1.83,0,0,1,30,52.16Z"/><path class="cls-1" d="M76.45,60.39H74.53v-7.9A13.08,13.08,0,0,0,61.47,39.43H50.57V31.1H54A4.29,4.29,0,0,0,58.06,27V23.62h.42a7.09,7.09,0,0,0,7.07-7.07v-3a1.08,1.08,0,1,0-2.16,0v3a4.92,4.92,0,0,1-4.91,4.91h-27a4.91,4.91,0,0,1-4.91-4.91v-3a1.08,1.08,0,1,0-2.16,0v3a7.08,7.08,0,0,0,7.07,7.07h.42V27A4.29,4.29,0,0,0,36,31.1h3.42v8.33H28.53A13.08,13.08,0,0,0,15.47,52.49v7.9H13.55a1.08,1.08,0,0,0,0,2.16h7.91v7.91a7.08,7.08,0,0,0,7.07,7.07H61.47a7.08,7.08,0,0,0,7.07-7.07V62.55h7.91a1.08,1.08,0,1,0,0-2.16ZM40.51,29H36A2.17,2.17,0,0,1,34.1,27V23.62H55.9V27A2.17,2.17,0,0,1,54,29h-4.5A1.08,1.08,0,0,0,48.41,30v9.4H41.59V30A1.08,1.08,0,0,0,40.51,29ZM66.38,70.46a4.91,4.91,0,0,1-4.91,4.91H28.53a4.91,4.91,0,0,1-4.91-4.91v-18a4.92,4.92,0,0,1,4.91-4.92H61.47a4.92,4.92,0,0,1,4.91,4.92Zm-4.91-25H28.53a7.08,7.08,0,0,0-7.07,7.07v7.9H17.62v-7.9a10.92,10.92,0,0,1,10.91-10.9H61.47a10.92,10.92,0,0,1,10.91,10.9v7.9H68.54v-7.9A7.08,7.08,0,0,0,61.47,45.42Z"/></svg>