<svg id="Layer_1" data-name="Layer 1" xmlns="http://www.w3.org/2000/svg" viewBox="0 0 90 90"><defs><style>.cls-1{fill:#d3b356;}</style></defs><path class="cls-1" d="M34.05,62A12.9,12.9,0,1,1,46.94,49.14,12.91,12.91,0,0,1,34.05,62Zm0-23.92a11,11,0,1,0,11,11A11,11,0,0,0,34.05,38.11Z"/><path class="cls-1" d="M36.51,57.7H32.22a1.28,1.28,0,0,1-1.28-1.28V52.51H27a1.28,1.28,0,0,1-1.28-1.27v-4.3A1.28,1.28,0,0,1,27,45.66h3.91V41.75a1.27,1.27,0,0,1,1.28-1.27h4.29a1.27,1.27,0,0,1,1.28,1.27v3.91H41.7A1.28,1.28,0,0,1,43,46.94v4.3a1.28,1.28,0,0,1-1.28,1.27H37.79v3.91A1.28,1.28,0,0,1,36.51,57.7Zm-3.7-1.87h3.11v-3.7a1.49,1.49,0,0,1,1.49-1.49H41.1V47.53H37.41A1.49,1.49,0,0,1,35.92,46V42.35H32.81V46a1.49,1.49,0,0,1-1.49,1.49h-3.7v3.11h3.7a1.49,1.49,0,0,1,1.49,1.49Z"/><path class="cls-1" d="M80.63,63.46H78a1.14,1.14,0,0,1-1.14-1.14v-2h-2a1.15,1.15,0,0,1-1.15-1.14V56.57a1.15,1.15,0,0,1,1.15-1.14h2v-2A1.15,1.15,0,0,1,78,52.28h2.61a1.15,1.15,0,0,1,1.14,1.15v2h2a1.14,1.14,0,0,1,1.14,1.14v2.61a1.15,1.15,0,0,1-1.14,1.14h-2v2A1.14,1.14,0,0,1,80.63,63.46Zm-1.88-1.87H79.9V59.72a1.27,1.27,0,0,1,1.27-1.27H83V57.3H81.17A1.27,1.27,0,0,1,79.9,56V54.15H78.75V56a1.27,1.27,0,0,1-1.27,1.27H75.61v1.15h1.87a1.27,1.27,0,0,1,1.27,1.27Z"/><path class="cls-1" d="M8.27,65A.94.94,0,0,1,7.33,64V34A.94.94,0,1,1,9.2,34V64A.94.94,0,0,1,8.27,65Z"/><path class="cls-1" d="M59.1,65a.94.94,0,0,1-.94-.94V34A.94.94,0,1,1,60,34V64A.94.94,0,0,1,59.1,65Z"/><path class="cls-1" d="M61.26,26H58.41a3.3,3.3,0,0,0-3.15-2.35h-1.8A3.32,3.32,0,0,0,50.3,26H44.41V24.58A6.43,6.43,0,0,0,38,18.15H31.82a6.43,6.43,0,0,0-6.43,6.43V26H18a3.32,3.32,0,0,0-3.16-2.35H13A3.3,3.3,0,0,0,9.89,26H6.84a5.47,5.47,0,0,0-5.46,5.46V66.39a5.47,5.47,0,0,0,5.46,5.46H61.26a5.46,5.46,0,0,0,5.45-5.46V31.47A5.46,5.46,0,0,0,61.26,26ZM52,27a1.45,1.45,0,0,1,1.45-1.44h1.8A1.45,1.45,0,0,1,56.71,27v.78H52Zm-24.75-2.4A4.56,4.56,0,0,1,31.82,20H38a4.56,4.56,0,0,1,4.56,4.56V26H27.26ZM11.59,27A1.45,1.45,0,0,1,13,25.54h1.8A1.45,1.45,0,0,1,16.29,27v.78h-4.7ZM64.84,66.39A3.59,3.59,0,0,1,61.26,70H6.84a3.59,3.59,0,0,1-3.59-3.59V31.47a3.59,3.59,0,0,1,3.59-3.59H9.72v.82a.94.94,0,0,0,.94.93h6.56a.94.94,0,0,0,.94-.93v-.82h32v.82a.94.94,0,0,0,.94.93h6.56a.94.94,0,0,0,.94-.93v-.82h2.68a3.59,3.59,0,0,1,3.58,3.59Z"/><path class="cls-1" d="M85.43,45v-.58h1.06a2.12,2.12,0,0,0,2.12-2.11v-1a2.12,2.12,0,0,0-2.12-2.11H71.64a2.12,2.12,0,0,0-2.11,2.11v1a2.12,2.12,0,0,0,2.11,2.11h.85v.68a4.11,4.11,0,0,0-2.9,3.9V67.65a4.11,4.11,0,0,0,4.1,4.1H84.52a4.11,4.11,0,0,0,4.1-4.1V49A4.12,4.12,0,0,0,85.43,45Zm-14-2.69v-1a.24.24,0,0,1,.24-.24H86.49a.24.24,0,0,1,.24.24v1a.24.24,0,0,1-.24.24H71.64A.24.24,0,0,1,71.4,42.28ZM86.75,67.65a2.23,2.23,0,0,1-2.23,2.23H73.69a2.23,2.23,0,0,1-2.23-2.23V49a2.23,2.23,0,0,1,2.05-2.2.94.94,0,0,0,.85-.94v-1.1h9.2v1.08a.93.93,0,0,0,.93.93h0A2.23,2.23,0,0,1,86.75,49Z"/></svg>