<svg id="Layer_1" data-name="Layer 1" xmlns="http://www.w3.org/2000/svg" viewBox="0 0 90 90"><defs><style>.cls-1{fill:#d3b356;}</style></defs><path class="cls-1" d="M76.28,75.26H59.62V70.84a1,1,0,0,0-1-1H56.9V65.4a1,1,0,0,0-1-1h-1.7V60a1,1,0,0,0-1-1H46V47.51a5.1,5.1,0,1,0-2,0V58.94H36.84a1,1,0,0,0-1,1v4.42h-1.7a1,1,0,0,0-1,1v4.42H31.4a1,1,0,0,0-1,1v4.42H13.72a1,1,0,0,0,0,2H76.28a1,1,0,0,0,0-2ZM41.94,42.51A3.06,3.06,0,1,1,45,45.57,3.07,3.07,0,0,1,41.94,42.51ZM37.86,61H52.14v3.4H37.86Zm-2.72,5.44H54.86v3.4H35.14Zm-2.72,5.44H57.58v3.4H32.42Z"/><path class="cls-1" d="M52.44,51.4a1,1,0,0,0,1.44,0,12.56,12.56,0,1,0-17.76,0A1,1,0,0,0,37.56,50a10.52,10.52,0,1,1,14.88,0A1,1,0,0,0,52.44,51.4Z"/><path class="cls-1" d="M57.24,55.78a1,1,0,0,0,.72-.3,18.33,18.33,0,1,0-25.92,0,1,1,0,0,0,1.44,0,1,1,0,0,0,0-1.45,16.29,16.29,0,1,1,23,0,1,1,0,0,0,0,1.45A1,1,0,0,0,57.24,55.78Z"/><path class="cls-1" d="M61.32,59.86a1,1,0,0,0,.72-.3,24.1,24.1,0,1,0-34.08,0,1,1,0,0,0,1.44,0,1,1,0,0,0,0-1.45,22.06,22.06,0,1,1,31.2,0,1,1,0,0,0,0,1.45A1,1,0,0,0,61.32,59.86Z"/><path class="cls-1" d="M25.36,63.6a1,1,0,0,0,0-1.45,27.78,27.78,0,1,1,39.28,0,1,1,0,0,0,0,1.45,1,1,0,0,0,.72.3,1,1,0,0,0,.72-.3A29.82,29.82,0,0,0,23.92,21.43a29.8,29.8,0,0,0,0,42.17A1,1,0,0,0,25.36,63.6Z"/></svg>