<svg id="Layer_1" data-name="Layer 1" xmlns="http://www.w3.org/2000/svg" viewBox="0 0 90 90"><defs><style>.cls-1{fill:#d3b356;}</style></defs><path class="cls-1" d="M86.91,23H77v-.81a1,1,0,0,0-2,0V23H65a1,1,0,0,0,0,2H75v5.26H72.33a1,1,0,0,0-1,1v6.28H63.76c-.09-2.7-.61-5.47-2.36-5.47H28.6c-1.46,0-1.88,1.88-2,2.5a18.18,18.18,0,0,0-.34,3H18.69V31.33a1,1,0,0,0-1-1H15V25.06H25a1,1,0,0,0,0-2H15v-.81a1,1,0,0,0-2,0V23H3.09a1,1,0,1,0,0,2H13v5.26H10.38a1,1,0,0,0-1,1V44.09c0,3.36,2.35,5.11,4.66,5.11a4.73,4.73,0,0,0,4.67-5.11V39.64h7.55c.09,2.69.61,5.47,2.36,5.47h4.74l1.14,3.44c-3,.06-5.43.55-6.83,4.29L22.43,66.76H19.49a1,1,0,1,0,0,2h7.29a1,1,0,0,0,0-2H24.6l4.95-13.2c1.05-2.79,2.54-3,5.65-3,.95,2.29,2.53,3.65,4.33,3.65H50.47c1.8,0,3.38-1.36,4.33-3.65,3.11,0,4.6.2,5.65,3l5,13.2H63.22a1,1,0,0,0,0,2h7.29a1,1,0,1,0,0-2H67.57L62.35,52.84c-1.4-3.74-3.8-4.23-6.83-4.29l1.15-3.44H61.4c1.75,0,2.27-2.78,2.36-5.47h7.56v4.45c0,3.36,2.34,5.11,4.66,5.11s4.66-1.75,4.66-5.11V31.33a1,1,0,0,0-1-1H77V25.06h9.92a1,1,0,1,0,0-2ZM16.65,44.09c0,2.13-1.32,3.08-2.63,3.08s-2.62-1-2.62-3.08V32.35h5.25Zm44.5-1H55.93a1,1,0,0,0-1,.7l-1.82,5.46c-.46,1.36-1.43,3-2.68,3H39.53c-1.25,0-2.22-1.59-2.68-3L35,43.77a1,1,0,0,0-1-.7H28.85c-.78-1.28-.78-7.61,0-8.9h32.3C61.93,35.46,61.93,41.79,61.15,43.07Zm17.45,1c0,2.13-1.32,3.08-2.62,3.08s-2.63-1-2.63-3.08V32.35H78.6Z"/></svg>