<svg id="Layer_1" data-name="Layer 1" xmlns="http://www.w3.org/2000/svg" viewBox="0 0 90 90"><defs><style>.cls-1{fill:#d3b356;}</style></defs><path class="cls-1" d="M20.21,37.18H33.67a2.55,2.55,0,0,0,2.54-2.54V29a2.57,2.57,0,0,0-2.54-2.55H20.21A2.57,2.57,0,0,0,17.67,29v5.65A2.55,2.55,0,0,0,20.21,37.18ZM19.62,29a.57.57,0,0,1,.59-.59H33.67a.57.57,0,0,1,.59.59v5.65a.57.57,0,0,1-.59.59H20.21a.56.56,0,0,1-.59-.59Z"/><path class="cls-1" d="M27,52.4a7.23,7.23,0,1,0,7.22,7.23A7.24,7.24,0,0,0,27,52.4Zm0,12.5a5.28,5.28,0,1,1,5.27-5.27A5.25,5.25,0,0,1,27,64.9Z"/><path class="cls-1" d="M27,56.31a3.32,3.32,0,1,0,3.32,3.32A3.33,3.33,0,0,0,27,56.31ZM27,61a1.37,1.37,0,1,1,1.37-1.37A1.35,1.35,0,0,1,27,61Z"/><path class="cls-1" d="M74.67,56.31A3.32,3.32,0,1,0,78,59.63,3.34,3.34,0,0,0,74.67,56.31Zm0,4.69A1.37,1.37,0,1,1,76,59.63,1.36,1.36,0,0,1,74.67,61Z"/><path class="cls-1" d="M44.62,37.18H54.76a1,1,0,0,0,1-1.17s-.93-4.69-1.35-7.4a2.56,2.56,0,0,0-2.52-2.17H44.62a2.6,2.6,0,0,0-1.81.75A2.57,2.57,0,0,0,42.07,29v5.62a2.54,2.54,0,0,0,2.55,2.56ZM44,29a.62.62,0,0,1,.6-.6h7.22a.6.6,0,0,1,.6.51c.36,2.37.94,5.22,1.15,6.32h-9a.56.56,0,0,1-.42-.18.58.58,0,0,1-.18-.43Z"/><path class="cls-1" d="M74.67,52.4a7.23,7.23,0,1,0,7.22,7.23A7.25,7.25,0,0,0,74.67,52.4Zm0,12.5a5.28,5.28,0,1,1,5.27-5.27A5.26,5.26,0,0,1,74.67,64.9Z"/><path class="cls-1" d="M88,50.85H84.27l1.56-2.4a1,1,0,0,0,.16-.53v-1h2a1,1,0,0,0,1-1V40.1a1,1,0,0,0-1-1H85.75a3.32,3.32,0,0,0-2.88-1.69c-6.05-.37-22.25-1.14-23.36-1.19-.14-1-1.29-9.81-2.14-14.26a4.28,4.28,0,0,0-4-3.51c-13.13-.06-26.26.05-39.4,0a4.07,4.07,0,0,0-4.06,4.06v5.11a5.42,5.42,0,0,0-3.41-1.21,5.34,5.34,0,0,0-5.37,5.27V42.65a5.22,5.22,0,0,0,1.58,3.73,5.4,5.4,0,0,0,3.79,1.53,5.34,5.34,0,0,0,3.41-1.24v4.18H8.79a1,1,0,0,0-.88,1V56.7a1,1,0,0,0,1,1h6.42a11.31,11.31,0,0,0-.18,2,11.91,11.91,0,1,0,23.81,0,11.32,11.32,0,0,0-.17-2H62.94a12.41,12.41,0,0,0-.17,2,11.91,11.91,0,1,0,23.81,0,12.41,12.41,0,0,0-.17-2H88a1,1,0,0,0,1-1V51.82A1,1,0,0,0,88,50.85Zm-2-9.77h1V45H86ZM59.64,44V38.2c1.7.08,17.22.83,23.11,1.19.85.09,1.29.44,1.29,1v7.1l-.51.85-1.31,2a11.83,11.83,0,0,0-14-.75L66.66,50.9l-31.61,0a11.83,11.83,0,0,0-16,0H11.81V41.08H38.17V44A4.88,4.88,0,0,0,43,48.89H54.76A4.89,4.89,0,0,0,59.64,44ZM40.12,44V41.08H57.68V44a2.89,2.89,0,0,1-2.92,2.93H43A2.9,2.9,0,0,1,40.12,44Zm17.56-6.76v1.88H40.12V24.49h15.7C56.65,29.49,57.67,37.17,57.68,37.25ZM13.92,20.43H53.31a2.35,2.35,0,0,1,2.18,2.11H11.81A2.21,2.21,0,0,1,13.92,20.43Zm24.25,4.06V39.13H11.81v-2h1a2.75,2.75,0,0,0,2.93-2.54V29a2.76,2.76,0,0,0-2.93-2.55h-1v-2ZM11.81,28.4h1c.66,0,1,.38,1,.59v5.65c0,.2-.32.59-1,.59h-1ZM6.45,46A3.41,3.41,0,0,1,4,45a3.25,3.25,0,0,1-1-2.33V31.71A3.35,3.35,0,0,1,6.45,28.4a3.44,3.44,0,0,1,2.42,1,3.24,3.24,0,0,1,1,2.34V42.65A3.34,3.34,0,0,1,6.45,46Zm3.41,9.76V52.8H17.3a11.5,11.5,0,0,0-1.49,2.92ZM27,69.58a10,10,0,1,1,10-9.95A9.93,9.93,0,0,1,27,69.58ZM38.27,55.72a11.52,11.52,0,0,0-1.5-2.92H64.94a11.86,11.86,0,0,0-1.5,2.92ZM74.68,69.58a10,10,0,1,1,9.95-9.95A9.94,9.94,0,0,1,74.68,69.58ZM87,55.72H85.91a11.86,11.86,0,0,0-1.5-2.92H87Z"/></svg>