<svg id="Layer_1" data-name="Layer 1" xmlns="http://www.w3.org/2000/svg" viewBox="0 0 90 90"><defs><style>.cls-1{fill:#d3b356;}</style></defs><path class="cls-1" d="M68.68,40.18,63.91,33a2.35,2.35,0,0,1-.35-1.49l.86-11a3.89,3.89,0,0,0-2.24-4l-6.86-1.78a3.12,3.12,0,0,0-2.57.13,3.81,3.81,0,0,0-1.91,2.51L49.5,24.2a2.37,2.37,0,0,1-2.31,1.89H42.81A2.37,2.37,0,0,1,40.5,24.2l-1.35-6.81a3.79,3.79,0,0,0-1.9-2.47,3.12,3.12,0,0,0-2.57-.13l-6.74,1.74-.11,0a3.88,3.88,0,0,0-2.25,4l.86,11A2.34,2.34,0,0,1,26.09,33l-4.76,7.14a4.17,4.17,0,0,0-.69,2.29V71.58a3.68,3.68,0,0,0,3.47,3.85H65.89a3.68,3.68,0,0,0,3.47-3.85V42.47A4.16,4.16,0,0,0,68.68,40.18ZM22.51,47.65H31.7a1.2,1.2,0,0,1,1.2,1.2v3.22a1.2,1.2,0,0,1-1.2,1.2H22.51Zm0,13.16H31.7A1.21,1.21,0,0,1,32.9,62v3.21a1.21,1.21,0,0,1-1.2,1.21H22.51ZM65.89,73.56H24.11a1.83,1.83,0,0,1-1.6-2V68.31H31.7a3.08,3.08,0,0,0,3.07-3.08V62a3.08,3.08,0,0,0-3.07-3.08H22.51v-3.8H31.7a3.08,3.08,0,0,0,3.07-3.07V48.85a3.08,3.08,0,0,0-3.07-3.07H22.51V42.47a2.24,2.24,0,0,1,.37-1.25l4.76-7.14a4.14,4.14,0,0,0,.67-2.68l-.87-11a2.06,2.06,0,0,1,1-2.08l2.58-.67,1.07,5.56A.93.93,0,0,0,33,24a.55.55,0,0,0,.18,0A.92.92,0,0,0,34,22.87l-1.08-5.68,2.32-.61.12,0a1.32,1.32,0,0,1,1.09.05,1.86,1.86,0,0,1,.91,1.21l1.34,6.76A4.25,4.25,0,0,0,42.81,28h4.38a4.24,4.24,0,0,0,4.15-3.4l1.33-6.72a1.89,1.89,0,0,1,.92-1.25,1.32,1.32,0,0,1,1.09-.05l2.83.74-1.07,5.59A.92.92,0,0,0,57.18,24a.55.55,0,0,0,.18,0,.94.94,0,0,0,.92-.76l1-5.47,2.2.58a2,2,0,0,1,1,2.09l-.86,11a4.1,4.1,0,0,0,.66,2.7l4.76,7.14a2.24,2.24,0,0,1,.37,1.25v3.31H58.94a3.08,3.08,0,0,0-3.07,3.07v3.22a3.08,3.08,0,0,0,3.07,3.07h8.55v3.8H58.94A3.08,3.08,0,0,0,55.87,62v3.21a3.08,3.08,0,0,0,3.07,3.08h8.55v3.27A1.83,1.83,0,0,1,65.89,73.56Zm1.6-25.91v5.62H58.94a1.2,1.2,0,0,1-1.2-1.2V48.85a1.2,1.2,0,0,1,1.2-1.2Zm0,13.16v5.63H58.94a1.21,1.21,0,0,1-1.2-1.21V62a1.21,1.21,0,0,1,1.2-1.21Z"/><path class="cls-1" d="M56.94,42l.61-7.53a3.32,3.32,0,0,0-3.31-3.32H36.57a3.34,3.34,0,0,0-3.32,3.39l.61,7.39a3.31,3.31,0,0,0,3.31,3.31H53.63A3.29,3.29,0,0,0,56.94,42Zm-1.86-.07a1.45,1.45,0,0,1-1.45,1.44H37.17a1.48,1.48,0,0,1-1.45-1.52l-.6-7.38A1.45,1.45,0,0,1,36.57,33H54.24a1.43,1.43,0,0,1,1.44,1.37Z"/></svg>