<svg id="Layer_1" data-name="Layer 1" xmlns="http://www.w3.org/2000/svg" viewBox="0 0 90 90"><defs><style>.cls-1{fill:#d3b356;}</style></defs><path class="cls-1" d="M44.61,71.4a12.9,12.9,0,1,0-12.9-12.89A12.9,12.9,0,0,0,44.61,71.4Zm0-23.92a11,11,0,1,1-11,11A11,11,0,0,1,44.61,47.48Z"/><path class="cls-1" d="M79.32,25.17a.93.93,0,0,0-1.31.17L68,38.2H66.83V31.43a2.7,2.7,0,0,0-1.74-4.77H63.78v-3A3.63,3.63,0,0,0,62,20.51h0l-1.6-4.14a2.62,2.62,0,0,0-1.08-5H49.8A2.63,2.63,0,0,0,47.19,14a2.59,2.59,0,0,0,1.4,2.29L47,20.5s0,.05,0,.08a3.62,3.62,0,0,0-1.61,2.49h0a7.19,7.19,0,0,0-1,.09V23a.94.94,0,0,0-.93-.94H42l-1.14-4.21a.94.94,0,0,0-.91-.7H27.81a1,1,0,0,0-.91.7L25.76,22H24.12a.94.94,0,0,0-.93.94V36s0,0,0,.07a9.24,9.24,0,0,0-.79,2.18H22L12,25.34a.93.93,0,0,0-1.48,1.14L20.64,39.54V77.7a.94.94,0,0,0,.93.94H68.26a.93.93,0,0,0,.93-.94v-38s0,0,0,0L79.49,26.48A.93.93,0,0,0,79.32,25.17Zm-27.46,13V32.09H65V38.2ZM35.78,34.5c1.7,0,3.2,1.52,3.82,3.7H32C32.59,36,34.08,34.5,35.78,34.5Zm5.76,3.7a9.27,9.27,0,0,0-.68-1.94V29.45a4.51,4.51,0,0,1,4.51-4.51h.11a4.5,4.5,0,0,1,4.07,2.61,2.69,2.69,0,0,0,.35,4V38.2Zm24.38-8.81a.82.82,0,0,1-.83.82H51.53a.84.84,0,0,1,0-1.68H65.09A.84.84,0,0,1,65.92,29.39ZM51.53,26.66c-.11,0-.21,0-.32,0a6.34,6.34,0,0,0-4-3.36A1.78,1.78,0,0,1,49,21.86H60.14a1.77,1.77,0,0,1,1.77,1.77v3ZM49.2,20l1.27-3.37h8L59.78,20Zm.6-6.76h9.51a.75.75,0,0,1,.74.78.74.74,0,0,1-.74.74H49.8a.75.75,0,0,1-.73-.78A.74.74,0,0,1,49.8,13.23ZM28.52,19H39.24l.82,3H27.7Zm-2,4.9H42.25A6.38,6.38,0,0,0,39,29.45v4.39a5.08,5.08,0,0,0-3.21-1.21A5.24,5.24,0,0,0,32,34.4a5.25,5.25,0,0,0-3.81-1.77,5,5,0,0,0-3.11,1.12V23.89ZM28.17,34.5A3.5,3.5,0,0,1,30.86,36,9.27,9.27,0,0,0,30,38.2H24.35C25,36,26.5,34.5,28.17,34.5ZM67.32,76.77H22.51V40.07H67.32Z"/><path class="cls-1" d="M43.38,32.58a.83.83,0,0,0,.46-.12l3.78-2.16a.93.93,0,1,0-.92-1.62l-3.78,2.16a.92.92,0,0,0-.35,1.27A.92.92,0,0,0,43.38,32.58Z"/><path class="cls-1" d="M47,33.54,43.19,35.7a.94.94,0,0,0,.46,1.75.84.84,0,0,0,.46-.13l3.78-2.16A.93.93,0,0,0,47,33.54Z"/><path class="cls-1" d="M41.5,61.88v3.91a1.28,1.28,0,0,0,1.27,1.28h4.3a1.28,1.28,0,0,0,1.28-1.28V61.88h3.91a1.27,1.27,0,0,0,1.27-1.28V56.31A1.27,1.27,0,0,0,52.26,55H48.35V51.12a1.27,1.27,0,0,0-1.28-1.27h-4.3a1.27,1.27,0,0,0-1.27,1.27V55H37.59a1.28,1.28,0,0,0-1.28,1.28V60.6a1.28,1.28,0,0,0,1.28,1.28Zm-3.32-5h3.7a1.49,1.49,0,0,0,1.49-1.49V51.72h3.11v3.69A1.49,1.49,0,0,0,48,56.9h3.69V60H48a1.49,1.49,0,0,0-1.49,1.49v3.7H43.37V61.5A1.49,1.49,0,0,0,41.88,60h-3.7Z"/></svg>